<svg xmlns="http://www.w3.org/2000/svg" width="38.285" height="38.793" viewBox="0 0 38.285 38.793">
  <g id="Trazado_100684" data-name="Trazado 100684" transform="translate(16.177) rotate(47)" fill="none" opacity="0.5">
    <path d="M16.208,0C25.16,0,32.416,4.951,32.416,11.059S25.16,22.119,16.208,22.119,0,17.167,0,11.059,7.257,0,16.208,0Z" stroke="none"/>
    <path d="M 16.20820617675781 3 C 14.30161666870117 3 12.45884704589844 3.252830505371094 10.73108673095703 3.751461029052734 C 9.107526779174805 4.220020294189453 7.663166046142578 4.881431579589844 6.438146591186523 5.717300415039062 C 5.154106140136719 6.593430519104004 2.999996185302734 8.452481269836426 2.999996185302734 11.05933094024658 C 2.999996185302734 13.66618061065674 5.154106140136719 15.52523040771484 6.438146591186523 16.4013614654541 C 7.663166046142578 17.23723030090332 9.107526779174805 17.89864158630371 10.73108673095703 18.36720085144043 C 12.45884704589844 18.86583137512207 14.30161666870117 19.11865997314453 16.20820617675781 19.11865997314453 C 18.11479568481445 19.11865997314453 19.95755577087402 18.86583137512207 21.68531608581543 18.36720085144043 C 23.30888748168945 17.89864158630371 24.75323677062988 17.23723030090332 25.9782657623291 16.4013614654541 C 27.26230621337891 15.52523040771484 29.41641616821289 13.66618061065674 29.41641616821289 11.05933094024658 C 29.41641616821289 8.452481269836426 27.26230621337891 6.593430519104004 25.9782657623291 5.717300415039062 C 24.75323677062988 4.881431579589844 23.30888748168945 4.220020294189453 21.68531608581543 3.751461029052734 C 19.95755577087402 3.252830505371094 18.11479568481445 3 16.20820617675781 3 M 16.20820617675781 0 C 25.15974617004395 0 32.41641616821289 4.951431274414062 32.41641616821289 11.05933094024658 C 32.41641616821289 17.1672306060791 25.15974617004395 22.11866188049316 16.20820617675781 22.11866188049316 C 7.256656646728516 22.11866188049316 -3.814697265625e-06 17.1672306060791 -3.814697265625e-06 11.05933094024658 C -3.814697265625e-06 4.951431274414062 7.256656646728516 0 16.20820617675781 0 Z" stroke="none" fill="#fff"/>
  </g>
</svg>
