<svg xmlns="http://www.w3.org/2000/svg" width="103.201" height="20.13" viewBox="0 0 103.201 20.13">
  <g id="Grupo_80117" data-name="Grupo 80117" transform="translate(0.001)">
    <path id="Trazado_100685" data-name="Trazado 100685" d="M82.189,0,71.99,7.846,61.787,0l-10.2,7.846L41.391,0,31.2,7.846,21,0,10.8,7.846,1.2.461,0,2.015l10.8,8.306L21,2.475l10.2,7.846,10.2-7.846,10.2,7.846,10.2-7.846,10.2,7.846,10.2-7.846L92.4,10.321l10.8-8.306L102,.46,92.4,7.847Z" transform="translate(-0.001 0)" fill="#bbe7f6"/>
    <path id="Trazado_100686" data-name="Trazado 100686" d="M71.99,17.846,61.788,10l-10.2,7.846L41.391,10,31.2,17.846,21,10,10.8,17.846,1.2,10.461,0,12.015l10.8,8.306L21,12.474l10.2,7.847,10.2-7.847,10.2,7.847,10.2-7.847,10.2,7.847,10.2-7.847L92.4,20.321l10.8-8.306-1.195-1.556L92.4,17.847,82.19,10Z" transform="translate(-0.001 -0.192)" fill="#bbe7f6"/>
  </g>
</svg>
